<?xml version="1.0" standalone="no"?>
<!DOCTYPE svg PUBLIC "-//W3C//DTD SVG 20010904//EN"
 "http://www.w3.org/TR/2001/REC-SVG-20010904/DTD/svg10.dtd">
<svg version="1.0" xmlns="http://www.w3.org/2000/svg"
 width="1024.000000pt" height="1024.000000pt" viewBox="0 0 1024.000000 1024.000000"
 preserveAspectRatio="xMidYMid meet">

<g transform="translate(0.000000,1024.000000) scale(0.100000,-0.100000)"
fill="#239B52" stroke="none">
<path d="M2695 8188 c-51 -19 -122 -67 -148 -101 -44 -58 -62 -107 -203 -532
-156 -475 -160 -497 -112 -591 15 -28 42 -64 60 -79 37 -31 109 -65 139 -65
10 0 19 -5 19 -10 0 -6 -37 -129 -82 -273 -70 -220 -83 -272 -81 -323 1 -73
30 -144 76 -192 58 -60 -9 -33 917 -376 184 -68 371 -137 415 -153 l80 -29 5
-219 c6 -248 14 -281 88 -359 42 -43 146 -96 191 -96 27 0 30 -3 36 -42 3 -24
5 -110 3 -193 -2 -125 -6 -150 -18 -151 -8 -1 -24 -2 -36 -2 -63 -5 -174 -122
-174 -184 l0 -28 -652 0 -653 0 0 298 0 299 -28 36 c-51 67 -52 67 -395 67
-304 0 -310 0 -342 -23 -18 -12 -41 -38 -51 -57 -18 -33 -19 -74 -19 -801 l0
-766 22 -33 c13 -18 36 -43 51 -54 27 -20 42 -21 315 -24 158 -2 302 0 320 3
45 8 109 68 122 113 5 21 10 148 10 285 l0 247 647 -2 647 -3 10 -34 c14 -50
82 -117 131 -129 23 -6 147 -9 285 -8 279 2 301 7 348 79 l27 40 3 256 c2 141
0 271 -3 289 -9 51 -70 107 -137 127 l-58 16 0 190 0 189 25 0 c38 0 115 40
155 80 39 39 65 98 75 173 5 39 10 48 23 44 9 -2 232 -91 496 -196 263 -106
503 -198 534 -206 79 -21 204 -19 296 5 105 27 234 89 272 131 17 19 49 53 70
77 32 35 51 47 104 61 l65 18 7 89 c3 51 15 113 27 145 41 107 143 192 249
208 25 3 48 13 53 21 7 14 124 428 182 645 l24 90 42 -1 c89 -2 118 -59 86
-170 -9 -31 -14 -58 -12 -60 8 -9 114 19 158 42 66 33 539 437 573 489 9 13
16 44 16 69 0 64 -35 95 -141 128 -46 15 -158 49 -249 77 -91 28 -289 88 -440
135 -151 46 -419 128 -595 181 -176 53 -417 126 -535 162 -118 36 -323 98
-455 138 -132 40 -337 103 -455 140 -257 80 -547 170 -880 271 -135 42 -294
91 -355 111 -60 19 -166 52 -235 73 -69 21 -213 65 -320 98 -431 134 -460 142
-535 141 -38 0 -83 -5 -100 -11z m-394 -1285 c13 -16 12 -17 -3 -4 -10 7 -18
15 -18 17 0 8 8 3 21 -13z m4211 -455 c116 -54 210 -177 238 -315 19 -88 8
-299 -20 -397 -103 -366 -366 -666 -632 -722 -194 -41 -356 43 -444 231 -101
215 -81 475 59 748 92 181 240 341 387 418 140 72 303 87 412 37z m199 -845
c-12 -20 -14 -14 -5 12 4 9 9 14 11 11 3 -2 0 -13 -6 -23z m-21 -257 c0 -2 -8
-10 -17 -17 -16 -13 -17 -12 -4 4 13 16 21 21 21 13z m-787 -663 c-7 -2 -21
-2 -30 0 -10 3 -4 5 12 5 17 0 24 -2 18 -5z m-3356 -345 c-3 -8 -6 -5 -6 6 -1
11 2 17 5 13 3 -3 4 -12 1 -19z m1366 -63 c-3 -9 -8 -14 -10 -11 -3 3 -2 9 2
15 9 16 15 13 8 -4z"/>
<path d="M6149 6236 c-195 -75 -349 -262 -394 -477 -43 -204 6 -384 129 -466
93 -63 179 -67 292 -14 146 68 285 255 329 444 17 71 19 212 5 275 -23 100
-85 184 -164 224 -51 26 -148 33 -197 14z m11 -315 c18 -34 11 -113 -14 -167
-40 -87 -122 -129 -168 -87 -60 54 52 273 140 273 21 0 35 -7 42 -19z"/>
<path d="M6792 5207 c-21 -22 -22 -33 -22 -174 l0 -150 -77 -7 c-92 -9 -128
-22 -181 -70 -52 -47 -82 -112 -82 -175 l0 -50 -144 -3 c-163 -3 -186 -13
-186 -73 0 -60 23 -70 186 -73 l144 -3 0 -100 0 -99 -145 0 c-132 0 -147 -2
-165 -20 -23 -23 -26 -68 -6 -96 13 -17 30 -19 165 -22 l151 -3 0 -99 0 -99
-146 -3 c-139 -3 -147 -4 -165 -27 -26 -32 -24 -67 6 -96 23 -24 29 -25 165
-25 l140 0 0 -100 0 -100 -143 0 c-137 0 -144 -1 -165 -23 -29 -30 -28 -62 3
-92 23 -24 29 -25 165 -25 l140 0 0 -32 c0 -47 41 -129 81 -162 58 -49 127
-76 197 -76 l62 0 0 -149 c0 -82 3 -156 6 -165 9 -23 66 -39 98 -26 39 14 46
46 46 201 l0 139 85 0 85 0 0 -149 c0 -130 2 -152 19 -172 26 -32 86 -32 112
0 17 20 19 42 19 172 l0 149 90 0 90 0 0 -149 c0 -130 2 -152 19 -172 26 -32
86 -32 112 0 17 20 19 42 19 172 l0 149 90 0 90 0 0 -148 c0 -160 7 -184 55
-196 29 -7 79 15 89 39 3 9 6 82 6 161 l0 144 43 0 c125 2 243 103 262 226 l6
44 135 0 c165 0 194 11 194 73 0 15 -9 36 -20 47 -18 18 -33 20 -165 20 l-145
0 0 103 0 102 144 0 c127 0 146 2 165 19 13 12 21 31 21 50 0 66 -27 76 -194
76 l-136 0 0 100 0 100 145 0 c132 0 147 2 165 20 11 11 20 33 20 50 0 17 -9
39 -20 50 -18 18 -33 20 -165 20 l-145 0 0 99 0 100 146 3 c139 3 147 4 165
27 10 13 19 33 19 46 0 13 -9 33 -19 46 -18 23 -26 24 -165 27 l-146 3 0 32
c-1 148 -100 253 -247 262 l-58 4 -5 156 c-5 150 -6 158 -29 176 -30 25 -62
24 -95 -2 l-26 -20 0 -155 0 -154 -90 0 -90 0 0 150 c0 147 -1 152 -25 175
-13 14 -36 25 -50 25 -14 0 -37 -11 -50 -25 -24 -23 -25 -28 -25 -175 l0 -150
-90 0 -90 0 0 149 c0 135 -2 151 -21 175 -27 34 -77 36 -107 3 -21 -22 -22
-33 -22 -175 l0 -152 -84 0 -85 0 -3 156 c-3 150 -4 157 -27 175 -32 26 -73
24 -99 -4z m105 -49 c-3 -8 -6 -5 -6 6 -1 11 2 17 5 13 3 -3 4 -12 1 -19z
m1114 -489 l29 -32 -2 -633 -3 -634 -33 -32 -32 -33 -629 -3 c-696 -3 -690 -3
-725 58 -21 34 -21 48 -21 658 l0 624 33 29 32 29 661 0 661 0 29 -31z m503
-817 c3 -5 -1 -9 -9 -9 -8 0 -12 4 -9 9 3 4 7 8 9 8 2 0 6 -4 9 -8z m-2266
-429 c-10 -2 -26 -2 -35 0 -10 3 -2 5 17 5 19 0 27 -2 18 -5z"/>
<path d="M7065 4478 c-3 -7 -72 -215 -154 -461 -107 -322 -146 -450 -137 -453
7 -3 46 -4 87 -2 l74 3 34 98 33 97 163 0 162 0 32 -100 32 -100 89 0 89 0 -9
28 c-5 15 -74 223 -153 462 l-145 435 -96 3 c-71 2 -98 -1 -101 -10z m157
-388 l56 -170 -115 0 c-94 0 -114 3 -110 14 19 48 97 300 97 312 0 42 21 -4
72 -156z"/>
<path d="M7680 4025 l0 -465 80 0 80 0 0 465 0 465 -80 0 -80 0 0 -465z"/>
</g>
</svg>
